<svg width="107" height="32" viewBox="0 0 107 32" fill="none" xmlns="http://www.w3.org/2000/svg">
<path d="M2.80123 30.3037H0.0115814V25.0393H2.68479V25.5969H0.628222V27.3484H2.53063V27.9027H0.628222V29.7445H2.80123V30.3037Z" fill="#212121"/>
<path d="M6.68969 26.5432L5.19237 30.3021H4.60197L3.1768 26.5432H3.83773L4.79221 29.2738C4.86273 29.4739 4.90701 29.6494 4.92505 29.7986H4.93981C4.96441 29.61 5.00377 29.4395 5.05789 29.2886L6.05665 26.5432H6.69133H6.68969Z" fill="#212121"/>
<path d="M8.86269 30.3907C8.30673 30.3907 7.86393 30.2152 7.53101 29.8642C7.19973 29.5133 7.03409 29.0475 7.03409 28.4669C7.03409 27.8355 7.20629 27.3419 7.55233 26.9877C7.89673 26.6334 8.36413 26.4563 8.95125 26.4563C9.53838 26.4563 9.94838 26.6285 10.2633 26.9745C10.5781 27.3189 10.7339 27.7978 10.7339 28.4095C10.7339 29.0213 10.565 29.4887 10.2255 29.8495C9.88606 30.2103 9.43177 30.3907 8.86105 30.3907M8.90533 26.9614C8.51829 26.9614 8.21325 27.0926 7.98693 27.3567C7.76225 27.6191 7.64909 27.9831 7.64909 28.4456C7.64909 28.9081 7.76389 29.2427 7.99021 29.4985C8.21817 29.756 8.52321 29.8839 8.90369 29.8839C9.28418 29.8839 9.5925 29.7576 9.80078 29.5051C10.0107 29.2525 10.114 28.895 10.114 28.4292C10.114 27.9635 10.0091 27.5977 9.80078 27.3419C9.59086 27.0877 9.29238 26.9598 8.90369 26.9598L8.90533 26.9614Z" fill="#212121"/>
<path d="M12.2985 24.7375H11.6966V30.3021H12.2985V24.7375Z" fill="#212121"/>
<path d="M16.5576 30.3037H15.9557V29.7084H15.941C15.6917 30.1643 15.3046 30.3907 14.7815 30.3907C13.886 30.3907 13.4383 29.8577 13.4383 28.79V26.5432H14.0369V28.6949C14.0369 29.4887 14.3403 29.8839 14.9471 29.8839C15.2407 29.8839 15.4818 29.7757 15.672 29.5592C15.8622 29.3427 15.9574 29.059 15.9574 28.7097V26.5432H16.5592V30.3021L16.5576 30.3037Z" fill="#212121"/>
<path d="M20.3345 30.1299C20.0459 30.3037 19.7031 30.3907 19.3063 30.3907C18.77 30.3907 18.337 30.2168 18.009 29.8675C17.6794 29.5182 17.5154 29.0672 17.5154 28.5112C17.5154 27.8913 17.6925 27.3944 18.0484 27.0188C18.4026 26.6433 18.8766 26.4563 19.4686 26.4563C19.7983 26.4563 20.0902 26.517 20.3427 26.64V27.2566C20.0639 27.0615 19.7655 26.9631 19.4473 26.9631C19.0635 26.9631 18.7486 27.1008 18.5026 27.3763C18.2566 27.6519 18.1336 28.0127 18.1336 28.4604C18.1336 28.9081 18.2484 29.2476 18.4813 29.5034C18.7126 29.7576 19.0225 29.8855 19.4129 29.8855C19.7409 29.8855 20.0492 29.7773 20.3378 29.5592V30.1315L20.3345 30.1299ZM20.0197 31.2418C20.0197 31.6715 19.6835 31.888 19.0094 31.888C18.9159 31.888 18.8372 31.8847 18.77 31.8798V31.5501C18.8749 31.5649 18.9602 31.5715 19.0275 31.5715C19.3719 31.5715 19.5457 31.4616 19.5457 31.2418C19.5457 31.0499 19.3883 30.9548 19.0717 30.9548C19.0471 30.9548 18.9979 30.9597 18.9209 30.9696V30.3005H19.3177V30.6826C19.5326 30.6826 19.7031 30.7318 19.8294 30.8302C19.9557 30.9286 20.018 31.0647 20.018 31.2418H20.0197Z" fill="#212121"/>
<path d="M23.936 30.3037H23.3341V29.7165H23.3193C23.0569 30.1675 22.6732 30.3922 22.1631 30.3922C21.7892 30.3922 21.4956 30.2938 21.2841 30.0954C21.0725 29.8969 20.9659 29.6345 20.9659 29.3065C20.9659 28.6046 21.3792 28.1963 22.2074 28.0815L23.3341 27.9224C23.3341 27.2844 23.0766 26.9646 22.56 26.9646C22.1074 26.9646 21.699 27.1188 21.3333 27.4271V26.8105C21.7023 26.5759 22.1287 26.4578 22.6108 26.4578C23.4948 26.4578 23.936 26.9252 23.936 27.8601V30.3053V30.3037ZM23.7342 24.9507C23.7342 25.2082 23.6752 25.4181 23.5571 25.5804C23.439 25.7428 23.28 25.8248 23.0799 25.8248C22.906 25.8248 22.7076 25.7625 22.4846 25.6346C22.296 25.5296 22.15 25.4771 22.0483 25.4771C21.8335 25.4771 21.7252 25.6149 21.7252 25.892H21.3792C21.3792 25.6296 21.4382 25.4214 21.5563 25.2623C21.6744 25.1048 21.8384 25.0261 22.0483 25.0261C22.2074 25.0261 22.3894 25.0901 22.5961 25.218C22.7765 25.3262 22.9339 25.3787 23.0668 25.3787C23.2718 25.3787 23.3751 25.236 23.3751 24.9523H23.7342V24.9507ZM23.3341 28.4012L22.4272 28.5259C22.1484 28.5653 21.9368 28.6341 21.7958 28.7342C21.6531 28.8326 21.5826 29.008 21.5826 29.2606C21.5826 29.4443 21.6482 29.5935 21.7794 29.71C21.9106 29.8264 22.0844 29.8838 22.3025 29.8838C22.601 29.8838 22.847 29.7789 23.0422 29.5689C23.2373 29.359 23.3341 29.095 23.3341 28.7752V28.4012Z" fill="#212121"/>
<path d="M26.642 30.3907C26.086 30.3907 25.6432 30.2152 25.3119 29.8642C24.9807 29.5133 24.815 29.0475 24.815 28.4669C24.815 27.8355 24.9872 27.3419 25.3333 26.9877C25.6777 26.6334 26.1451 26.4563 26.7322 26.4563C27.3193 26.4563 27.7293 26.6285 28.0442 26.9745C28.3591 27.3189 28.5149 27.7978 28.5149 28.4095C28.5149 29.0213 28.346 29.4887 28.0065 29.8495C27.667 30.2103 27.2127 30.3907 26.642 30.3907ZM26.6863 26.9614C26.2992 26.9614 25.9942 27.0926 25.7695 27.3567C25.5448 27.6191 25.4317 27.9831 25.4317 28.4456C25.4317 28.9081 25.5465 29.2427 25.7728 29.4985C26.0007 29.756 26.3058 29.8839 26.6863 29.8839C27.0667 29.8839 27.3751 29.7576 27.5833 29.5051C27.7933 29.2525 27.8966 28.895 27.8966 28.4292C27.8966 27.9635 27.7916 27.5977 27.5833 27.3419C27.3734 27.0877 27.0749 26.9598 26.6863 26.9598V26.9614Z" fill="#212121"/>
<path d="M35.1979 30.0824C34.8092 30.2874 34.3238 30.3907 33.7432 30.3907C32.9954 30.3907 32.3951 30.1497 31.9441 29.6675C31.4931 29.1853 31.2684 28.5523 31.2684 27.77C31.2684 26.9287 31.5226 26.2481 32.0278 25.7282C32.5345 25.21 33.1774 24.9492 33.9548 24.9492C34.4533 24.9492 34.8666 25.0214 35.1962 25.1657V25.8233C34.819 25.6134 34.4025 25.5085 33.9482 25.5085C33.343 25.5085 32.8543 25.7102 32.4771 26.1136C32.1016 26.5171 31.913 27.0566 31.913 27.7323C31.913 28.408 32.0884 28.8852 32.4394 29.2657C32.7904 29.6462 33.2512 29.8364 33.8219 29.8364C34.35 29.8364 34.8076 29.7183 35.1946 29.4838V30.0824H35.1979Z" fill="#212121"/>
<path d="M37.7612 30.3907C37.2053 30.3907 36.7625 30.2152 36.4295 29.8642C36.0983 29.5133 35.9326 29.0475 35.9326 28.4669C35.9326 27.8355 36.1048 27.3419 36.4509 26.9877C36.7953 26.6334 37.2627 26.4563 37.8498 26.4563C38.4369 26.4563 38.8469 26.6285 39.1618 26.9745C39.4767 27.3189 39.6325 27.7978 39.6325 28.4095C39.6325 29.0213 39.4635 29.4887 39.1241 29.8495C38.7846 30.2103 38.3303 30.3907 37.7596 30.3907M37.8039 26.9614C37.4168 26.9614 37.1118 27.0926 36.8855 27.3567C36.6608 27.6191 36.5476 27.9831 36.5476 28.4456C36.5476 28.9081 36.6624 29.2427 36.8887 29.4985C37.1167 29.756 37.4217 29.8839 37.8022 29.8839C38.1827 29.8839 38.491 29.7576 38.6993 29.5051C38.9092 29.2525 39.0125 28.895 39.0125 28.4292C39.0125 27.9635 38.9076 27.5977 38.6993 27.3419C38.4894 27.0877 38.1909 26.9598 37.8022 26.9598L37.8039 26.9614Z" fill="#212121"/>
<path d="M43.7144 30.3038H43.1126V28.1603C43.1126 27.3633 42.8206 26.9631 42.2384 26.9631C41.9367 26.9631 41.6874 27.0763 41.4906 27.3026C41.2938 27.5289 41.1954 27.8143 41.1954 28.1603V30.3038H40.5935V26.5449H41.1954V27.1698H41.2101C41.4939 26.6958 41.9055 26.458 42.4434 26.458C42.8551 26.458 43.17 26.5909 43.3864 26.8565C43.6046 27.1222 43.7128 27.506 43.7128 28.0078V30.3055L43.7144 30.3038Z" fill="#212121"/>
<path d="M44.6214 30.1677V29.5215C44.9494 29.7643 45.3102 29.8856 45.7038 29.8856C46.2318 29.8856 46.4959 29.7085 46.4959 29.3559C46.4959 29.2559 46.4729 29.1706 46.4286 29.1017C46.3827 29.0312 46.322 28.9705 46.245 28.9164C46.1679 28.8623 46.0777 28.8147 45.9727 28.7721C45.8678 28.7294 45.7562 28.6851 45.6365 28.6376C45.4692 28.5703 45.3233 28.5047 45.197 28.4375C45.0707 28.3703 44.9658 28.2948 44.8821 28.2095C44.7985 28.1243 44.7345 28.0291 44.6919 27.9209C44.6492 27.8127 44.6279 27.688 44.6279 27.5437C44.6279 27.3666 44.6689 27.2108 44.7493 27.0747C44.8296 26.9385 44.9379 26.8254 45.0724 26.7335C45.2068 26.6417 45.361 26.5728 45.5332 26.5269C45.7054 26.481 45.8842 26.458 46.0678 26.458C46.3942 26.458 46.6845 26.5138 46.942 26.6269V27.237C46.6648 27.0566 46.3466 26.9648 45.9875 26.9648C45.8743 26.9648 45.7726 26.9779 45.6824 27.0025C45.5922 27.0287 45.5135 27.0648 45.4496 27.1107C45.3856 27.1567 45.3348 27.2124 45.2987 27.278C45.2626 27.342 45.2462 27.4141 45.2462 27.4928C45.2462 27.5912 45.2642 27.6732 45.2987 27.7388C45.3348 27.8044 45.3856 27.8635 45.4545 27.9143C45.5234 27.9652 45.6054 28.0127 45.7038 28.0537C45.8022 28.0947 45.9137 28.1406 46.0383 28.1898C46.2056 28.2538 46.3548 28.3178 46.486 28.3867C46.6189 28.4539 46.7304 28.5293 46.8239 28.6146C46.9174 28.6999 46.9879 28.7967 47.0387 28.9065C47.0879 29.0164 47.1142 29.1476 47.1142 29.3001C47.1142 29.4855 47.0732 29.6478 46.9912 29.7839C46.9092 29.9217 46.7993 30.0349 46.6632 30.1251C46.5254 30.2153 46.368 30.2825 46.1892 30.3268C46.0104 30.3711 45.8235 30.3924 45.6267 30.3924C45.2396 30.3924 44.9051 30.3186 44.6214 30.1677Z" fill="#212121"/>
<path d="M49.7825 30.2661C49.6414 30.3448 49.4528 30.3842 49.2199 30.3842C48.5623 30.3842 48.2326 30.0168 48.2326 29.2821V27.0583H47.5865V26.545H48.2326V25.6266L48.8345 25.4314V26.5433H49.7808V27.0566H48.8345V29.1739C48.8345 29.4264 48.8772 29.6052 48.9625 29.7134C49.0477 29.8217 49.1904 29.8758 49.3889 29.8758C49.5414 29.8758 49.6709 29.8348 49.7808 29.7512V30.2645L49.7825 30.2661Z" fill="#212121"/>
<path d="M53.2773 30.3038H52.6754V29.7167H52.6607C52.3983 30.1677 52.0145 30.3924 51.5045 30.3924C51.1305 30.3924 50.837 30.294 50.6254 30.0955C50.4139 29.8971 50.3073 29.6347 50.3073 29.3067C50.3073 28.6048 50.7205 28.1964 51.5487 28.0816L52.6754 27.9225C52.6754 27.2846 52.4179 26.9648 51.9013 26.9648C51.4487 26.9648 51.0403 27.1189 50.6746 27.4272V26.8106C51.0436 26.5761 51.47 26.458 51.9522 26.458C52.8361 26.458 53.2773 26.9254 53.2773 27.8602V30.3055V30.3038ZM52.6754 28.4014L51.7685 28.5261C51.4897 28.5654 51.2781 28.6343 51.1371 28.7343C50.9944 28.8327 50.9239 29.0082 50.9239 29.2608C50.9239 29.4445 50.9895 29.5937 51.1207 29.7101C51.2519 29.8266 51.4257 29.884 51.6439 29.884C51.9423 29.884 52.1883 29.779 52.3835 29.5691C52.5787 29.3592 52.6754 29.0951 52.6754 28.7753V28.4014Z" fill="#212121"/>
<path d="M57.5331 30.3038H56.9312V28.1603C56.9312 27.3633 56.6393 26.9631 56.0571 26.9631C55.7553 26.9631 55.5061 27.0763 55.3093 27.3026C55.1125 27.5289 55.0141 27.8143 55.0141 28.1603V30.3038H54.4122V26.5449H55.0141V27.1698H55.0288C55.3125 26.6958 55.7242 26.458 56.2621 26.458C56.6738 26.458 56.9886 26.5909 57.2051 26.8565C57.4232 27.1222 57.5315 27.506 57.5315 28.0078V30.3055L57.5331 30.3038Z" fill="#212121"/>
<path d="M60.4113 30.2661C60.2703 30.3448 60.0817 30.3842 59.8488 30.3842C59.1912 30.3842 58.8615 30.0168 58.8615 29.2821V27.0583H58.2154V26.545H58.8615V25.6266L59.4634 25.4314V26.5433H60.4097V27.0566H59.4634V29.1739C59.4634 29.4264 59.506 29.6052 59.5913 29.7134C59.6766 29.8217 59.8193 29.8758 60.0177 29.8758C60.1686 29.8758 60.2998 29.8348 60.4097 29.7512V30.2645L60.4113 30.2661Z" fill="#212121"/>
<path d="M64.1768 28.5735H61.5232C61.5331 28.9917 61.6462 29.3148 61.8611 29.5427C62.0759 29.7707 62.3728 29.8838 62.75 29.8838C63.1731 29.8838 63.5634 29.7444 63.9176 29.4656V30.0314C63.5864 30.2709 63.1501 30.3906 62.6073 30.3906C62.0644 30.3906 61.6594 30.22 61.356 29.8789C61.0526 29.5378 60.9 29.0573 60.9 28.4374C60.9 27.8519 61.0657 27.3763 61.397 27.0073C61.7282 26.6383 62.1399 26.4546 62.6319 26.4546C63.1239 26.4546 63.5044 26.6137 63.7733 26.9318C64.0423 27.25 64.1768 27.6911 64.1768 28.257V28.5718V28.5735ZM63.5601 28.0634C63.5568 27.7158 63.4732 27.4451 63.3092 27.2516C63.1436 27.0581 62.914 26.9613 62.6204 26.9613C62.3268 26.9613 62.0956 27.063 61.8972 27.2664C61.6987 27.4698 61.5774 27.7354 61.5298 28.0634H63.5601Z" fill="#212121"/>
<path fill-rule="evenodd" clip-rule="evenodd" d="M46.2645 8.90685C46.3597 8.68381 46.4597 8.48045 46.5925 8.27545C46.6647 8.15573 46.7385 8.03929 46.8139 7.92941C47.0239 7.66701 47.2387 7.44233 47.4831 7.22913C47.5995 7.14385 47.7159 7.06185 47.834 6.98805C48.1259 6.80109 48.4326 6.66661 48.7639 6.54853C48.9607 6.48785 49.169 6.43045 49.3691 6.38289C49.5527 6.35501 49.7217 6.32385 49.8906 6.30581H55.6109L54.0136 10.7568H51.4601C51.1567 10.7945 50.891 10.865 50.6269 10.9962L50.5089 11.0651C50.1743 11.2816 49.9644 11.5555 49.8184 11.9245L49.7676 12.0688L45.6463 23.4799H41.0838L46.2662 8.90521L46.2645 8.90685ZM58.0742 18.0712C58.0512 18.286 58.066 18.4746 58.1611 18.6763L58.2349 18.7829C58.3776 18.9273 58.5432 18.9994 58.7384 19.0486H61.1755L62.1529 16.1704C62.1939 15.9474 62.2005 15.7539 62.0971 15.5521C62.0233 15.4537 61.9381 15.398 61.8364 15.3389C61.7429 15.3012 61.6691 15.2766 61.5756 15.2537H59.5486C59.4289 15.2684 59.3321 15.3012 59.2173 15.3619C59.0467 15.4816 58.9565 15.6374 58.8827 15.8375L58.0726 18.0712H58.0742ZM55.3485 23.4717C55.1616 23.4389 54.9926 23.411 54.8073 23.3668C54.5466 23.3028 54.3219 23.2208 54.0677 23.1126C53.943 23.0437 53.8217 22.9715 53.6872 22.8895C53.5822 22.8059 53.4707 22.7222 53.369 22.6255C53.2739 22.5271 53.1821 22.4238 53.105 22.3139C53.0164 22.1958 52.9607 22.0794 52.8934 21.9564C52.8442 21.8252 52.7967 21.6956 52.754 21.5545C52.7262 21.4102 52.7032 21.2774 52.6835 21.1331C52.6786 20.9789 52.6769 20.8264 52.6786 20.6722C52.6835 20.5017 52.7048 20.3344 52.7278 20.1589L54.663 14.6829C54.7319 14.5501 54.8024 14.4123 54.8746 14.2795C55.0418 14.0007 55.2304 13.7416 55.4453 13.4907C55.5929 13.3234 55.7585 13.1692 55.9438 13.0249C56.0882 12.9085 56.2341 12.8117 56.3981 12.7166C56.6425 12.5837 56.8983 12.4755 57.1673 12.3902C57.3592 12.3328 57.5478 12.2869 57.7413 12.259C57.902 12.2361 58.0529 12.2164 58.2152 12.2033H63.2189C63.3878 12.1541 63.5141 12.0721 63.6519 11.9491C63.8454 11.7129 63.9159 11.4374 63.7978 11.1405C63.7273 10.9995 63.6535 10.9241 63.5157 10.8437C63.419 10.7961 63.3419 10.7715 63.2304 10.7551H56.0504L57.6642 6.30581H66.6596C66.8072 6.31893 66.9516 6.33369 67.1106 6.35829C67.3534 6.41569 67.5682 6.48785 67.8027 6.59281C67.9274 6.65677 68.0471 6.72729 68.1684 6.80929C68.2882 6.89457 68.403 6.98805 68.5178 7.08481C68.6178 7.19305 68.7113 7.30129 68.8031 7.42757C68.8818 7.55877 68.9524 7.68013 69.0229 7.82117C69.0901 7.96713 69.1229 8.10817 69.1705 8.26397C69.2115 8.42961 69.2361 8.58541 69.241 8.75433C69.2443 8.93309 69.241 9.10201 69.2344 9.28077C69.1951 9.48085 69.1672 9.66289 69.1196 9.85313L66.4956 17.0937L65.0672 21.1577L64.3456 23.4717H55.3518H55.3485ZM32.9051 18.0712C32.8821 18.286 32.8854 18.4746 32.9821 18.6763L33.0543 18.7829C33.2101 18.9273 33.3626 18.9994 33.5709 19.0486H36.0079L36.9854 16.1704C37.0264 15.9474 37.0329 15.7539 36.9165 15.5521C36.8214 15.4226 36.7213 15.3635 36.577 15.3029L36.4065 15.2537H34.3811C34.2695 15.2668 34.1925 15.2914 34.0957 15.3373C33.8858 15.4554 33.7907 15.6145 33.7152 15.8375L32.9034 18.0712H32.9051ZM30.1646 23.4717C29.9924 23.4389 29.8087 23.411 29.6382 23.3668C29.3774 23.3028 29.1396 23.2208 28.8985 23.1126C28.7722 23.0437 28.6378 22.9715 28.518 22.8895C28.4 22.8059 28.3016 22.7222 28.1999 22.6255C28.0884 22.5271 28.0113 22.4238 27.9211 22.3139C27.8473 22.1958 27.7784 22.0777 27.7243 21.9564C27.6587 21.8252 27.6275 21.6956 27.5849 21.5545C27.557 21.4102 27.5324 21.2774 27.5127 21.1331C27.4947 20.9789 27.493 20.8264 27.4947 20.6722C27.5127 20.5017 27.534 20.3344 27.5586 20.1589L29.4906 14.6829C29.5922 14.4583 29.7103 14.2516 29.8497 14.0401C29.9481 13.8859 30.0629 13.7399 30.181 13.5973C30.3548 13.3841 30.5451 13.2037 30.7616 13.0265C30.9059 12.9101 31.065 12.8133 31.2158 12.7182C31.4733 12.5854 31.7177 12.4771 31.9981 12.3919C32.19 12.3345 32.3786 12.2885 32.5738 12.2607C32.7361 12.2377 32.8837 12.218 33.0477 12.2049H38.0383C38.1596 12.1688 38.2695 12.118 38.3712 12.0458C38.632 11.8228 38.75 11.5259 38.6533 11.1914L38.6057 11.093C38.4679 10.888 38.299 10.7961 38.0596 10.7568H30.8813L32.4819 6.30745H41.4905C41.6364 6.32057 41.7808 6.33533 41.9267 6.35993C42.1826 6.41733 42.399 6.48949 42.6188 6.59445C42.7566 6.65841 42.8779 6.72893 42.9976 6.81093C43.119 6.89621 43.2338 6.98969 43.3355 7.08645C43.447 7.19469 43.5421 7.30129 43.6208 7.42921C43.711 7.56041 43.7832 7.68177 43.8521 7.82281C43.9046 7.96877 43.9538 8.10981 43.998 8.26561C44.0407 8.43125 44.0489 8.58705 44.0686 8.75597C44.0718 8.93473 44.0686 9.10201 44.0489 9.28241C44.0243 9.48249 43.9931 9.66453 43.9472 9.85477L41.3248 17.0954L39.8964 21.1593L39.1617 23.4734H30.1679L30.1646 23.4717ZM25.2938 10.7568L22.7469 17.7481C22.6731 18.0597 22.596 18.4976 22.8108 18.7747C22.9781 18.9666 23.2438 19.0257 23.4849 19.0601H25.8711L24.3377 23.4734H18.8551C18.6813 23.4504 18.496 23.4242 18.3238 23.3881C18.1598 23.3438 17.9991 23.3028 17.8498 23.2454C17.7055 23.1847 17.5677 23.1175 17.4267 23.0437C17.3037 22.9617 17.1872 22.878 17.0839 22.7813C16.9691 22.6763 16.8756 22.5779 16.7822 22.4615C16.7051 22.3417 16.6346 22.2237 16.564 22.0925C16.5116 21.9596 16.464 21.8284 16.4181 21.6858C16.3689 21.4906 16.3262 21.3003 16.3049 21.097C16.2984 20.8756 16.2984 20.6689 16.3049 20.4541C16.3246 20.2655 16.3459 20.0867 16.3722 19.9047L19.6915 10.7584H17.7383L19.2848 6.31073H21.2873L23.5537 0.00491981H29.0888L26.8666 6.30089H30.5156L28.9002 10.7502L25.2954 10.7601L25.2938 10.7568ZM14.3254 14.8469L14.2549 15.3619L14.1762 15.849L14.0598 16.3164L13.9384 16.7723L13.7777 17.2217L13.6252 17.6513L13.4366 18.0695L13.2414 18.4746L13.0134 18.8666L12.7904 19.2389L12.5346 19.6062L12.2869 19.9523L12.0048 20.2852L11.7178 20.5984L11.4128 20.9051L11.1028 21.1905L10.7879 21.4561L10.455 21.7153L10.1172 21.9531L9.76131 22.1778L9.40543 22.3828L9.04298 22.573L8.66579 22.7419L8.30006 22.8977L7.91794 23.0388L7.51942 23.1585L7.13238 23.2651L6.73222 23.3487L6.34354 23.4192L5.9401 23.4684L5.53666 23.5029L5.13321 23.516H0L1.5498 19.0896L2.14841 19.1159L2.72241 19.106L3.27345 19.0552L3.79825 18.9568L4.29517 18.8059L4.74945 18.6157L5.17749 18.3861L5.56289 18.104L5.91878 17.7907L6.23202 17.425L6.5141 17.0265L6.75026 16.5755L6.94214 16.0851L7.08646 15.5489L7.18158 14.965L7.2275 14.3353V14.0023L7.13402 9.10857L7.15698 8.65429L7.20454 8.20165L7.27178 7.75065L7.3505 7.30949L7.4653 6.87817L7.5883 6.45013L7.74738 6.03193L7.9163 5.61701L8.1049 5.22013L8.3017 4.82653L8.53294 4.4444L8.77238 4.0754L9.03314 3.70968L9.30047 3.36364L9.58747 3.02908L9.89415 2.7142L10.209 2.40588L10.5419 2.11888L10.8946 1.845L11.2554 1.58424L11.6326 1.3366L12.0163 1.11848L12.4165 0.906921L12.8248 0.724881L13.2365 0.5576L13.6662 0.40672L14.1139 0.28372L14.5518 0.177121L15.006 0.0951204L15.4784 0.0344386L15.954 0H21.5136L19.9621 4.37389L19.0077 4.37717L18.3861 4.43457L17.794 4.52969L17.2643 4.66417L16.7674 4.84293L16.3295 5.06597L15.9261 5.32017L15.5669 5.61537L15.2406 5.94829L14.9732 6.31073L14.7354 6.71581L14.5452 7.16517L14.4009 7.64405L14.2877 8.16721L14.2336 8.72645L14.2303 9.32669L14.3107 14.8469H14.3254Z" fill="#212121"/>
<path fill-rule="evenodd" clip-rule="evenodd" d="M101.858 6.35488C107.932 12.7033 105.406 20.964 102.335 24.4457C99.263 27.9275 93.6657 29.7019 87.8634 28.5408C82.061 27.3797 73.2542 22.2596 75.7798 12.0211C79.0451 -1.21373 94.4562 -1.37609 101.856 6.35488" fill="#212121"/>
<path fill-rule="evenodd" clip-rule="evenodd" d="M96.1421 20.426C96.1421 20.426 96.7194 18.9631 96.0732 18.4531C95.4271 17.9431 97.746 18.9369 96.1421 20.426ZM95.9683 18.0661C95.9683 18.0661 96.6669 16.4671 96.0535 15.7848C95.4418 15.1009 97.828 16.3851 95.9683 18.0661ZM95.8518 15.342C95.8518 15.342 96.5619 13.7742 95.9715 13.1526C95.3795 12.5311 97.7559 13.6167 95.8518 15.342ZM96.3209 22.1972C96.3209 22.1972 96.6489 21.1115 96.1847 20.8737C95.7223 20.6343 97.3721 20.9 96.3209 22.1972Z" fill="#212121"/>
<path fill-rule="evenodd" clip-rule="evenodd" d="M75.3813 16.5621C75.806 16.5408 86.1791 15.9996 86.8662 15.0451C87.0827 14.745 87.3041 14.3415 87.5501 13.8955C88.1011 12.8934 88.7752 11.6683 89.7953 10.868C90.512 10.3071 91.2696 9.42809 91.8666 8.56873C92.498 7.65853 92.9457 6.76637 92.9703 6.28913C92.9851 6.00213 93.049 5.79221 93.1507 5.65281C93.2065 5.57737 93.2721 5.52325 93.3459 5.48881C93.4213 5.45437 93.5066 5.43961 93.6001 5.44453C93.8248 5.45601 94.1134 5.58557 94.4365 5.82337C94.9006 6.16285 95.2138 6.58269 95.3647 7.03205C95.5041 7.44533 95.5336 7.91601 95.4418 8.39817C95.286 9.21653 95.163 9.48385 95.0318 9.77249C95.0105 9.82005 94.9892 9.86761 94.9646 9.92173C94.9104 10.0447 94.8022 10.2137 94.6792 10.4055C94.4398 10.7795 94.1478 11.2387 94.1019 11.5978C94.0773 11.7897 94.079 11.9275 94.097 12.0275C94.4348 12.1046 95.3204 12.3276 96.0535 12.5999C96.6177 12.8098 97.1359 13.0787 97.4098 13.4067C97.6132 13.6511 97.7149 13.9889 97.7559 14.3268C97.8165 14.8139 97.7559 15.3124 97.687 15.5043C97.6394 15.6355 97.7116 15.7454 97.8116 15.8946C97.9527 16.1062 98.1396 16.3866 98.1642 16.8622C98.2101 17.7003 97.9953 18.1562 97.9035 18.3513C97.8247 18.5203 97.9215 18.7679 97.9904 18.945L98.0166 19.0123C98.0576 19.1238 98.0871 19.5026 98.0396 19.8782C98.0084 20.1275 97.9428 20.3767 97.8231 20.5473C97.5886 20.8819 97.6886 21.1098 97.764 21.2853C97.7837 21.3296 97.8018 21.3706 97.8132 21.4099C97.8149 21.4181 97.8182 21.4263 97.8198 21.4345C97.8428 21.5461 97.8444 21.8019 97.7099 22.0643C97.5771 22.3267 97.3098 22.5989 96.7997 22.7498C96.7407 22.7662 96.6767 22.7826 96.6046 22.7974C96.2864 22.863 95.8912 22.9761 95.4484 23.1041C94.1741 23.4682 92.4964 23.9487 90.958 23.7962C90.1446 23.7158 89.6018 23.4419 89.1163 23.1992C88.3931 22.8351 87.8059 22.5399 86.4956 23.1615C85.0655 23.8388 82.2644 24.7539 80.5342 25.2951C80.403 25.1967 80.2734 25.0967 80.1438 24.995C81.8708 24.4554 84.6867 23.5354 86.1233 22.8564C86.2529 22.7941 86.3775 22.7416 86.4956 22.6973C86.6268 22.4874 87.1188 22.0282 87.1188 22.0282C87.1188 22.0282 87.8535 22.2873 88.5128 22.758C88.6243 22.8105 88.7375 22.8663 88.8539 22.9253C89.3115 23.1549 89.8232 23.414 90.6054 23.4911C92.1323 23.642 93.8067 23.1631 95.0794 22.799C95.5205 22.6727 95.9125 22.5612 96.2388 22.4923C96.3044 22.4792 96.3684 22.4628 96.4307 22.4448C96.9375 22.2955 97.2015 22.0266 97.3327 21.7691C97.4639 21.5116 97.4639 21.264 97.441 21.1557C97.441 21.1475 97.4377 21.141 97.436 21.1344C97.4262 21.1 97.4098 21.0623 97.3918 21.0196C97.359 20.9425 97.3213 20.8573 97.3049 20.7572C97.0457 20.7966 96.5406 20.8277 96.1224 20.5867C96.1224 20.5867 97.1031 20.6818 97.3803 20.3571C97.3983 20.321 97.4213 20.2849 97.4475 20.2472C97.564 20.0799 97.6296 19.8339 97.6607 19.5863C97.7083 19.2156 97.6804 18.8466 97.641 18.74C97.6263 18.7007 97.6214 18.6892 97.6165 18.6761C97.5869 18.599 97.5525 18.5088 97.5279 18.4186C97.2606 18.4497 96.5668 18.4891 96.0142 18.1693C96.0142 18.1693 97.1343 18.2923 97.5427 18.025C97.6394 17.8167 97.8297 17.369 97.787 16.5752C97.7624 16.116 97.5886 15.8553 97.459 15.6617C97.4279 15.6158 97.4 15.5715 97.3754 15.5305C97.0998 15.5781 96.4258 15.6503 95.8666 15.3682C95.8666 15.3682 96.9965 15.3337 97.3065 15.1747C97.3131 15.1714 97.3196 15.1681 97.3262 15.1665C97.3869 14.9533 97.4344 14.4924 97.3803 14.0414C97.3409 13.7216 97.254 13.4133 97.0917 13.2181C97.0474 13.1657 96.7472 13.041 96.37 12.9C95.5008 12.5769 94.4201 12.3243 94.3184 12.3096C94.279 12.3047 94.2413 12.2965 94.2036 12.2866C93.7838 12.2456 93.2868 12.2145 93.008 12.2637C92.4603 12.3604 92.9556 11.9603 92.9556 11.9603C92.9556 11.9603 93.2983 11.9258 93.8477 12.0324C93.8149 11.9849 93.7838 11.9307 93.7559 11.8684C93.7083 11.7585 93.6903 11.5831 93.7247 11.3075C93.7378 11.2075 93.769 11.0993 93.8133 10.9894C93.2016 10.9992 93.4361 10.8861 93.6575 10.786C93.8215 10.7122 93.9822 10.563 94.1232 10.3973C94.1839 10.2973 94.2462 10.2005 94.3053 10.1087C94.4266 9.91845 94.5349 9.74789 94.589 9.62489C94.6103 9.57569 94.6333 9.52485 94.6562 9.47565C94.7874 9.18701 94.9104 8.91969 95.0662 8.10625C95.1564 7.62901 95.1286 7.16489 94.9908 6.75817C94.8678 6.39573 94.6956 6.11693 94.4808 5.95949C94.3102 5.83321 94.1314 5.76269 93.9609 5.75449C93.8756 5.74957 93.7952 5.76433 93.7231 5.79713C93.6493 5.82993 93.587 5.88241 93.5328 5.95457C93.4344 6.09069 93.3705 6.29733 93.3574 6.58269C93.3344 7.06157 92.8834 7.95701 92.2504 8.87049C91.6534 9.73149 90.8941 10.6105 90.1757 11.1731C89.1573 11.9734 88.4849 13.1952 87.9339 14.1972C87.6879 14.6433 87.4665 15.0467 87.25 15.3485C86.5563 16.3112 76.1291 16.8524 75.7453 16.8721C75.9913 18.3481 76.2472 19.5715 76.4998 20.585C76.1865 19.9487 75.929 19.273 75.7355 18.5563C75.6289 18.0561 75.5256 17.5215 75.4256 16.9491C75.4108 16.8212 75.3977 16.6933 75.3862 16.5621" fill="white"/>
<path fill-rule="evenodd" clip-rule="evenodd" d="M92.8178 10.6599C93.2376 11.0338 93.8674 10.6829 94.1282 10.3171C94.2561 10.1187 94.9006 9.00022 94.8514 8.56726C94.8908 8.39178 94.0445 10.6107 92.8162 10.6615M95.9781 15.3208C95.9781 15.3208 96.9539 15.2781 97.2327 15.1453C97.3196 15.1059 97.3606 14.7025 97.3508 14.5237C97.3557 14.3302 97.2425 15.1781 95.9781 15.3208ZM96.0798 18.1072C96.0798 18.1072 96.9473 18.1892 97.4131 18.0104C97.5 17.971 97.6853 17.4692 97.6771 17.2904C97.6837 17.0969 97.3458 17.9661 96.0798 18.1072ZM96.1421 20.5196C96.1421 20.5196 96.8916 20.636 97.2655 20.372C97.3934 20.2867 97.5771 19.8308 97.5689 19.652C97.5755 19.4585 97.4065 20.3786 96.1421 20.5212V20.5196ZM96.2651 22.3334C96.2651 22.3334 96.8047 22.2793 97.0818 22.0153C97.2622 21.8447 97.3606 21.6069 97.4049 21.3166C97.4147 21.0001 97.3557 22.0054 96.2667 22.3334H96.2651ZM87.2385 21.0247C87.2385 21.0247 86.3201 18.2711 86.8203 16.9673C87.3205 15.6635 85.1163 18.2712 87.2385 21.0247ZM87.7059 22.0743C87.7059 22.0743 89.464 23.3224 90.8383 23.3683C92.211 23.4142 94.2659 22.9599 95.0367 22.7106C95.8092 22.4614 96.1027 22.3695 96.1027 22.3695C96.1027 22.3695 90.6104 23.6635 87.7043 22.0743H87.7059ZM78.2464 23.1994C78.781 23.8094 79.3665 24.3687 79.9897 24.8754C82.5563 24.1046 85.2098 23.1502 86.3759 22.5598C86.4923 22.5007 86.8121 22.1448 86.9105 22.0022C83.5239 23.4093 80.4161 23.5257 78.2447 23.201L78.2464 23.1994ZM93.7641 11.985C93.7641 11.985 93.2688 11.3848 93.3836 11.1011C93.4295 11.0158 93.5394 11.0174 93.7182 11.0338C93.6558 11.2093 93.5279 11.5537 93.7641 11.9867V11.985Z" fill="white"/>
<path fill-rule="evenodd" clip-rule="evenodd" d="M77.8183 21.7445C81.8708 27.9503 90.8514 30.0774 97.8723 26.494C104.893 22.9105 107.299 14.9713 103.247 8.76553C99.1925 2.55976 90.2135 0.43268 83.1926 4.01608C76.1718 7.59949 73.7659 15.5387 77.8183 21.7445ZM77.0016 22.1611C81.8478 29.5837 91.8387 32.5095 99.3089 28.6965C106.779 24.8835 108.908 15.7716 104.062 8.35061C99.2138 0.927962 89.2246 -1.9978 81.7543 1.8152C74.2825 5.62821 72.1554 14.7401 77.0016 22.1611Z" fill="#212121"/>
</svg>
