<svg width="652" height="196" viewBox="0 0 652 196" fill="none" xmlns="http://www.w3.org/2000/svg">
<path d="M17.9494 185.47H0.939453V153.37H17.2394V156.77H4.69945V167.45H16.2995V170.83H4.69945V182.06H17.9494V185.47Z" fill="#005F2A"/>
<path d="M41.6583 162.54L32.5283 185.46H28.9283L20.2383 162.54H24.2683L30.0883 179.19C30.5183 180.41 30.7883 181.48 30.8983 182.39H30.9883C31.1383 181.24 31.3783 180.2 31.7083 179.28L37.7983 162.54H41.6683H41.6583Z" fill="#005F2A"/>
<path d="M54.9098 186C51.5198 186 48.8198 184.93 46.7898 182.79C44.7698 180.65 43.7598 177.81 43.7598 174.27C43.7598 170.42 44.8098 167.41 46.9198 165.25C49.0198 163.09 51.8698 162.01 55.4498 162.01C59.0298 162.01 61.5298 163.06 63.4498 165.17C65.3698 167.27 66.3198 170.19 66.3198 173.92C66.3198 177.65 65.2898 180.5 63.2198 182.7C61.1498 184.9 58.3798 186 54.8998 186M55.1698 165.09C52.8098 165.09 50.9498 165.89 49.5698 167.5C48.1998 169.1 47.5098 171.32 47.5098 174.14C47.5098 176.96 48.2098 179 49.5898 180.56C50.9798 182.13 52.8398 182.91 55.1598 182.91C57.4798 182.91 59.3598 182.14 60.6298 180.6C61.9098 179.06 62.5398 176.88 62.5398 174.04C62.5398 171.2 61.8998 168.97 60.6298 167.41C59.3498 165.86 57.5298 165.08 55.1598 165.08L55.1698 165.09Z" fill="#005F2A"/>
<path d="M75.8595 151.53H72.1895V185.46H75.8595V151.53Z" fill="#005F2A"/>
<path d="M101.829 185.47H98.1586V181.84H98.0686C96.5486 184.62 94.1886 186 90.9986 186C85.5386 186 82.8086 182.75 82.8086 176.24V162.54H86.4586V175.66C86.4586 180.5 88.3086 182.91 92.0086 182.91C93.7986 182.91 95.2686 182.25 96.4286 180.93C97.5886 179.61 98.1686 177.88 98.1686 175.75V162.54H101.839V185.46L101.829 185.47Z" fill="#005F2A"/>
<path d="M124.86 184.41C123.1 185.47 121.01 186 118.59 186C115.32 186 112.68 184.94 110.68 182.81C108.67 180.68 107.67 177.93 107.67 174.54C107.67 170.76 108.75 167.73 110.92 165.44C113.08 163.15 115.97 162.01 119.58 162.01C121.59 162.01 123.37 162.38 124.91 163.13V166.89C123.21 165.7 121.39 165.1 119.45 165.1C117.11 165.1 115.19 165.94 113.69 167.62C112.19 169.3 111.44 171.5 111.44 174.23C111.44 176.96 112.14 179.03 113.56 180.59C114.97 182.14 116.86 182.92 119.24 182.92C121.24 182.92 123.12 182.26 124.88 180.93V184.42L124.86 184.41ZM122.94 191.19C122.94 193.81 120.89 195.13 116.78 195.13C116.21 195.13 115.73 195.11 115.32 195.08V193.07C115.96 193.16 116.48 193.2 116.89 193.2C118.99 193.2 120.05 192.53 120.05 191.19C120.05 190.02 119.09 189.44 117.16 189.44C117.01 189.44 116.71 189.47 116.24 189.53V185.45H118.66V187.78C119.97 187.78 121.01 188.08 121.78 188.68C122.55 189.28 122.93 190.11 122.93 191.19H122.94Z" fill="#005F2A"/>
<path d="M146.819 185.47H143.149V181.89H143.059C141.459 184.64 139.119 186.01 136.009 186.01C133.729 186.01 131.939 185.41 130.649 184.2C129.359 182.99 128.709 181.39 128.709 179.39C128.709 175.11 131.229 172.62 136.279 171.92L143.149 170.95C143.149 167.06 141.579 165.11 138.429 165.11C135.669 165.11 133.179 166.05 130.949 167.93V164.17C133.199 162.74 135.799 162.02 138.739 162.02C144.129 162.02 146.819 164.87 146.819 170.57V185.48V185.47ZM145.589 152.83C145.589 154.4 145.229 155.68 144.509 156.67C143.789 157.66 142.819 158.16 141.599 158.16C140.539 158.16 139.329 157.78 137.969 157C136.819 156.36 135.929 156.04 135.309 156.04C133.999 156.04 133.339 156.88 133.339 158.57H131.229C131.229 156.97 131.589 155.7 132.309 154.73C133.029 153.77 134.029 153.29 135.309 153.29C136.279 153.29 137.389 153.68 138.649 154.46C139.749 155.12 140.709 155.44 141.519 155.44C142.769 155.44 143.399 154.57 143.399 152.84H145.589V152.83ZM143.149 173.87L137.619 174.63C135.919 174.87 134.629 175.29 133.769 175.9C132.899 176.5 132.469 177.57 132.469 179.11C132.469 180.23 132.869 181.14 133.669 181.85C134.469 182.56 135.529 182.91 136.859 182.91C138.679 182.91 140.179 182.27 141.369 180.99C142.559 179.71 143.149 178.1 143.149 176.15V173.87Z" fill="#005F2A"/>
<path d="M163.32 186C159.93 186 157.23 184.93 155.21 182.79C153.19 180.65 152.18 177.81 152.18 174.27C152.18 170.42 153.23 167.41 155.34 165.25C157.44 163.09 160.29 162.01 163.87 162.01C167.45 162.01 169.95 163.06 171.87 165.17C173.79 167.27 174.74 170.19 174.74 173.92C174.74 177.65 173.71 180.5 171.64 182.7C169.57 184.9 166.8 186 163.32 186ZM163.59 165.09C161.23 165.09 159.37 165.89 158 167.5C156.63 169.1 155.94 171.32 155.94 174.14C155.94 176.96 156.64 179 158.02 180.56C159.41 182.13 161.27 182.91 163.59 182.91C165.91 182.91 167.79 182.14 169.06 180.6C170.34 179.06 170.97 176.88 170.97 174.04C170.97 171.2 170.33 168.97 169.06 167.41C167.78 165.86 165.96 165.08 163.59 165.08V165.09Z" fill="#005F2A"/>
<path d="M215.489 184.12C213.119 185.37 210.159 186 206.619 186C202.059 186 198.399 184.53 195.649 181.59C192.899 178.65 191.529 174.79 191.529 170.02C191.529 164.89 193.079 160.74 196.159 157.57C199.249 154.41 203.169 152.82 207.909 152.82C210.949 152.82 213.469 153.26 215.479 154.14V158.15C213.179 156.87 210.639 156.23 207.869 156.23C204.179 156.23 201.199 157.46 198.899 159.92C196.609 162.38 195.459 165.67 195.459 169.79C195.459 173.91 196.529 176.82 198.669 179.14C200.809 181.46 203.619 182.62 207.099 182.62C210.319 182.62 213.109 181.9 215.469 180.47V184.12H215.489Z" fill="#005F2A"/>
<path d="M231.119 186C227.729 186 225.029 184.93 222.999 182.79C220.979 180.65 219.969 177.81 219.969 174.27C219.969 170.42 221.019 167.41 223.129 165.25C225.229 163.09 228.079 162.01 231.659 162.01C235.239 162.01 237.739 163.06 239.659 165.17C241.579 167.27 242.529 170.19 242.529 173.92C242.529 177.65 241.499 180.5 239.429 182.7C237.359 184.9 234.589 186 231.109 186M231.379 165.09C229.019 165.09 227.159 165.89 225.779 167.5C224.409 169.1 223.719 171.32 223.719 174.14C223.719 176.96 224.419 179 225.799 180.56C227.189 182.13 229.049 182.91 231.369 182.91C233.689 182.91 235.569 182.14 236.839 180.6C238.119 179.06 238.749 176.88 238.749 174.04C238.749 171.2 238.109 168.97 236.839 167.41C235.559 165.86 233.739 165.08 231.369 165.08L231.379 165.09Z" fill="#005F2A"/>
<path d="M267.419 185.47H263.749V172.4C263.749 167.54 261.969 165.1 258.419 165.1C256.579 165.1 255.059 165.79 253.859 167.17C252.659 168.55 252.059 170.29 252.059 172.4V185.47H248.389V162.55H252.059V166.36H252.149C253.879 163.47 256.389 162.02 259.669 162.02C262.179 162.02 264.099 162.83 265.419 164.45C266.749 166.07 267.409 168.41 267.409 171.47V185.48L267.419 185.47Z" fill="#005F2A"/>
<path d="M272.949 184.64V180.7C274.949 182.18 277.149 182.92 279.549 182.92C282.769 182.92 284.379 181.84 284.379 179.69C284.379 179.08 284.239 178.56 283.969 178.14C283.689 177.71 283.319 177.34 282.849 177.01C282.379 176.68 281.829 176.39 281.189 176.13C280.549 175.87 279.869 175.6 279.139 175.31C278.119 174.9 277.229 174.5 276.459 174.09C275.689 173.68 275.049 173.22 274.539 172.7C274.029 172.18 273.639 171.6 273.379 170.94C273.119 170.28 272.989 169.52 272.989 168.64C272.989 167.56 273.239 166.61 273.729 165.78C274.219 164.95 274.879 164.26 275.699 163.7C276.519 163.14 277.459 162.72 278.509 162.44C279.559 162.16 280.649 162.02 281.769 162.02C283.759 162.02 285.529 162.36 287.099 163.05V166.77C285.409 165.67 283.469 165.11 281.279 165.11C280.589 165.11 279.969 165.19 279.419 165.34C278.869 165.5 278.389 165.72 277.999 166C277.609 166.28 277.299 166.62 277.079 167.02C276.859 167.41 276.759 167.85 276.759 168.33C276.759 168.93 276.869 169.43 277.079 169.83C277.299 170.23 277.609 170.59 278.029 170.9C278.449 171.21 278.949 171.5 279.549 171.75C280.149 172 280.829 172.28 281.589 172.58C282.609 172.97 283.519 173.36 284.319 173.78C285.129 174.19 285.809 174.65 286.379 175.17C286.949 175.69 287.379 176.28 287.689 176.95C287.989 177.62 288.149 178.42 288.149 179.35C288.149 180.48 287.899 181.47 287.399 182.3C286.899 183.14 286.229 183.83 285.399 184.38C284.559 184.93 283.599 185.34 282.509 185.61C281.419 185.88 280.279 186.01 279.079 186.01C276.719 186.01 274.679 185.56 272.949 184.64Z" fill="#005F2A"/>
<path d="M304.419 185.24C303.559 185.72 302.409 185.96 300.989 185.96C296.979 185.96 294.969 183.72 294.969 179.24V165.68H291.029V162.55H294.969V156.95L298.639 155.76V162.54H304.409V165.67H298.639V178.58C298.639 180.12 298.899 181.21 299.419 181.87C299.939 182.53 300.809 182.86 302.019 182.86C302.949 182.86 303.739 182.61 304.409 182.1V185.23L304.419 185.24Z" fill="#005F2A"/>
<path d="M325.729 185.47H322.059V181.89H321.969C320.369 184.64 318.029 186.01 314.919 186.01C312.639 186.01 310.849 185.41 309.559 184.2C308.269 182.99 307.619 181.39 307.619 179.39C307.619 175.11 310.139 172.62 315.189 171.92L322.059 170.95C322.059 167.06 320.489 165.11 317.339 165.11C314.579 165.11 312.089 166.05 309.859 167.93V164.17C312.109 162.74 314.709 162.02 317.649 162.02C323.039 162.02 325.729 164.87 325.729 170.57V185.48V185.47ZM322.059 173.87L316.529 174.63C314.829 174.87 313.539 175.29 312.679 175.9C311.809 176.5 311.379 177.57 311.379 179.11C311.379 180.23 311.779 181.14 312.579 181.85C313.379 182.56 314.439 182.91 315.769 182.91C317.589 182.91 319.089 182.27 320.279 180.99C321.469 179.71 322.059 178.1 322.059 176.15V173.87Z" fill="#005F2A"/>
<path d="M351.678 185.47H348.008V172.4C348.008 167.54 346.228 165.1 342.678 165.1C340.838 165.1 339.318 165.79 338.118 167.17C336.918 168.55 336.318 170.29 336.318 172.4V185.47H332.648V162.55H336.318V166.36H336.408C338.138 163.47 340.648 162.02 343.928 162.02C346.438 162.02 348.358 162.83 349.678 164.45C351.008 166.07 351.668 168.41 351.668 171.47V185.48L351.678 185.47Z" fill="#005F2A"/>
<path d="M369.23 185.24C368.37 185.72 367.22 185.96 365.8 185.96C361.79 185.96 359.78 183.72 359.78 179.24V165.68H355.84V162.55H359.78V156.95L363.45 155.76V162.54H369.22V165.67H363.45V178.58C363.45 180.12 363.71 181.21 364.23 181.87C364.75 182.53 365.62 182.86 366.83 182.86C367.75 182.86 368.55 182.61 369.22 182.1V185.23L369.23 185.24Z" fill="#005F2A"/>
<path d="M392.189 174.92H376.009C376.069 177.47 376.759 179.44 378.069 180.83C379.379 182.22 381.189 182.91 383.489 182.91C386.069 182.91 388.449 182.06 390.609 180.36V183.81C388.589 185.27 385.929 186 382.619 186C379.309 186 376.839 184.96 374.989 182.88C373.139 180.8 372.209 177.87 372.209 174.09C372.209 170.52 373.219 167.62 375.239 165.37C377.259 163.12 379.769 162 382.769 162C385.769 162 388.089 162.97 389.729 164.91C391.369 166.85 392.189 169.54 392.189 172.99V174.91V174.92ZM388.429 171.81C388.409 169.69 387.899 168.04 386.899 166.86C385.889 165.68 384.489 165.09 382.699 165.09C380.909 165.09 379.499 165.71 378.289 166.95C377.079 168.19 376.339 169.81 376.049 171.81H388.429Z" fill="#005F2A"/>
<path fill-rule="evenodd" clip-rule="evenodd" d="M282.969 54.9999C283.549 53.6399 284.159 52.3999 284.969 51.1499C285.409 50.4199 285.859 49.7099 286.319 49.0399C287.599 47.4399 288.909 46.0699 290.399 44.7699C291.109 44.2499 291.819 43.7499 292.539 43.2999C294.319 42.1599 296.189 41.3399 298.209 40.6199C299.409 40.2499 300.679 39.8999 301.899 39.6099C303.019 39.4399 304.049 39.2499 305.079 39.1399H339.959L330.219 66.2799H314.649C312.799 66.5099 311.179 66.9399 309.569 67.7399L308.849 68.1599C306.809 69.4799 305.529 71.1499 304.639 73.3999L304.329 74.2799L279.199 143.86H251.379L282.979 54.9899L282.969 54.9999ZM354.979 110.88C354.839 112.19 354.929 113.34 355.509 114.57L355.959 115.22C356.829 116.1 357.839 116.54 359.029 116.84H373.889L379.849 99.2899C380.099 97.9299 380.139 96.7499 379.509 95.5199C379.059 94.9199 378.539 94.5799 377.919 94.2199C377.349 93.9899 376.899 93.84 376.329 93.7H363.969C363.239 93.7899 362.649 93.9899 361.949 94.3599C360.909 95.0899 360.359 96.0399 359.909 97.2599L354.969 110.88H354.979ZM338.359 143.81C337.219 143.61 336.189 143.44 335.059 143.17C333.469 142.78 332.099 142.28 330.549 141.62C329.789 141.2 329.049 140.76 328.229 140.26C327.589 139.75 326.909 139.24 326.289 138.65C325.709 138.05 325.149 137.42 324.679 136.75C324.139 136.03 323.799 135.32 323.389 134.57C323.089 133.77 322.799 132.98 322.539 132.12C322.369 131.24 322.229 130.43 322.109 129.55C322.079 128.61 322.069 127.68 322.079 126.74C322.109 125.7 322.239 124.68 322.379 123.61L334.179 90.2199C334.599 89.4099 335.029 88.5699 335.469 87.7599C336.489 86.06 337.639 84.4799 338.949 82.95C339.849 81.93 340.859 80.9899 341.989 80.1099C342.869 79.3999 343.759 78.81 344.759 78.2299C346.249 77.42 347.809 76.7599 349.449 76.2399C350.619 75.8899 351.769 75.6099 352.949 75.4399C353.929 75.2999 354.849 75.1799 355.839 75.0999H386.349C387.379 74.7999 388.149 74.2999 388.989 73.5499C390.169 72.1099 390.599 70.4299 389.879 68.6199C389.449 67.7599 388.999 67.2999 388.159 66.8099C387.569 66.5199 387.099 66.3699 386.419 66.2699H342.639L352.479 39.1399H407.329C408.229 39.2199 409.109 39.3099 410.079 39.4599C411.559 39.8099 412.869 40.2499 414.299 40.8899C415.059 41.2799 415.789 41.7099 416.529 42.2099C417.259 42.7299 417.959 43.2999 418.659 43.8899C419.269 44.5499 419.839 45.2099 420.399 45.9799C420.879 46.7799 421.309 47.5199 421.739 48.3799C422.149 49.2699 422.349 50.1299 422.639 51.0799C422.889 52.0899 423.039 53.0399 423.069 54.0699C423.089 55.1599 423.069 56.1899 423.029 57.2799C422.789 58.4999 422.619 59.6099 422.329 60.7699L406.329 104.92L397.619 129.7L393.219 143.81H338.379H338.359ZM201.509 110.88C201.369 112.19 201.389 113.34 201.979 114.57L202.419 115.22C203.369 116.1 204.299 116.54 205.569 116.84H220.429L226.389 99.2899C226.639 97.9299 226.679 96.7499 225.969 95.5199C225.389 94.7299 224.779 94.3699 223.899 93.9999L222.859 93.7H210.509C209.829 93.78 209.359 93.9299 208.769 94.2099C207.489 94.9299 206.909 95.8999 206.449 97.2599L201.499 110.88H201.509ZM184.799 143.81C183.749 143.61 182.629 143.44 181.589 143.17C179.999 142.78 178.549 142.28 177.079 141.62C176.309 141.2 175.489 140.76 174.759 140.26C174.039 139.75 173.439 139.24 172.819 138.65C172.139 138.05 171.669 137.42 171.119 136.75C170.669 136.03 170.249 135.31 169.919 134.57C169.519 133.77 169.329 132.98 169.069 132.12C168.899 131.24 168.749 130.43 168.629 129.55C168.519 128.61 168.509 127.68 168.519 126.74C168.629 125.7 168.759 124.68 168.909 123.61L180.689 90.2199C181.309 88.8499 182.029 87.5899 182.879 86.2999C183.479 85.3599 184.179 84.4699 184.899 83.5999C185.959 82.2999 187.119 81.1999 188.439 80.1199C189.319 79.4099 190.289 78.8199 191.209 78.2399C192.779 77.4299 194.269 76.7699 195.979 76.2499C197.149 75.8999 198.299 75.6199 199.489 75.45C200.479 75.31 201.379 75.1899 202.379 75.1099H232.809C233.549 74.8899 234.219 74.58 234.839 74.14C236.429 72.78 237.149 70.9699 236.559 68.9299L236.269 68.3299C235.429 67.0799 234.399 66.5199 232.939 66.2799H189.169L198.929 39.1499H253.859C254.749 39.2299 255.629 39.3199 256.519 39.4699C258.079 39.8199 259.399 40.2599 260.739 40.8999C261.579 41.2899 262.319 41.7199 263.049 42.2199C263.789 42.7399 264.489 43.3099 265.109 43.8999C265.789 44.5599 266.369 45.2099 266.849 45.9899C267.399 46.7899 267.839 47.5299 268.259 48.3899C268.579 49.2799 268.879 50.1399 269.149 51.0899C269.409 52.0999 269.459 53.0499 269.579 54.0799C269.599 55.1699 269.579 56.1899 269.459 57.2899C269.309 58.5099 269.119 59.6199 268.839 60.7799L252.849 104.93L244.139 129.71L239.659 143.82H184.819L184.799 143.81ZM155.099 66.2799L139.569 108.91C139.119 110.81 138.649 113.48 139.959 115.17C140.979 116.34 142.599 116.7 144.069 116.91H158.619L149.269 143.82H115.839C114.779 143.68 113.649 143.52 112.599 143.3C111.599 143.03 110.619 142.78 109.709 142.43C108.829 142.06 107.989 141.65 107.129 141.2C106.379 140.7 105.669 140.19 105.039 139.6C104.339 138.96 103.769 138.36 103.199 137.65C102.729 136.92 102.299 136.2 101.869 135.4C101.549 134.59 101.259 133.79 100.979 132.92C100.679 131.73 100.419 130.57 100.289 129.33C100.249 127.98 100.249 126.72 100.289 125.41C100.409 124.26 100.539 123.17 100.699 122.06L120.939 66.2899H109.029L118.459 39.1699H130.669L144.489 0.71994H178.239L164.689 39.1099H186.939L177.089 66.2399L155.109 66.2999L155.099 66.2799ZM88.2191 91.2199L87.7891 94.3599L87.3091 97.3299L86.5991 100.18L85.8591 102.96L84.8791 105.7L83.9491 108.32L82.7991 110.87L81.6091 113.34L80.2191 115.73L78.8591 118L77.2991 120.24L75.7891 122.35L74.0691 124.38L72.3191 126.29L70.4591 128.16L68.5691 129.9L66.6491 131.52L64.6191 133.1L62.5591 134.55L60.3891 135.92L58.2191 137.17L56.0091 138.33L53.7091 139.36L51.4791 140.31L49.1491 141.17L46.7191 141.9L44.3591 142.55L41.9191 143.06L39.5491 143.49L37.0891 143.79L34.6291 144L32.1691 144.08H0.869141L10.3191 117.09L13.9691 117.25L17.4691 117.19L20.8291 116.88L24.0291 116.28L27.0591 115.36L29.8291 114.2L32.4391 112.8L34.7891 111.08L36.9591 109.17L38.8691 106.94L40.5891 104.51L42.0291 101.76L43.1991 98.7699L44.0791 95.4999L44.6591 91.9399L44.9391 88.0999V86.0699L44.3691 56.2299L44.5091 53.4599L44.7991 50.6999L45.2091 47.9499L45.6891 45.2599L46.3891 42.6299L47.1391 40.0199L48.1091 37.4699L49.1391 34.9399L50.2891 32.5199L51.4891 30.1199L52.8991 27.7899L54.3591 25.5399L55.9491 23.3099L57.5791 21.1999L59.3291 19.1599L61.1991 17.2399L63.1191 15.3599L65.1491 13.6099L67.2991 11.9399L69.4991 10.3499L71.7991 8.83994L74.1391 7.50993L76.5791 6.21994L79.0691 5.10994L81.5791 4.08994L84.1991 3.16994L86.9291 2.41994L89.5991 1.76994L92.3691 1.26994L95.2491 0.899933L98.1491 0.689941H132.049L122.589 27.3599L116.769 27.3799L112.979 27.7299L109.369 28.3099L106.139 29.1299L103.109 30.2199L100.439 31.5799L97.9791 33.1299L95.7891 34.9299L93.7991 36.9599L92.1691 39.1699L90.7191 41.6399L89.5591 44.3799L88.6791 47.2999L87.9891 50.4899L87.6591 53.8999L87.6391 57.5599L88.1291 91.2199H88.2191Z" fill="#F36F21"/>
<path fill-rule="evenodd" clip-rule="evenodd" d="M621.949 39.4401C658.989 78.1501 643.589 128.52 624.859 149.75C606.129 170.98 571.999 181.8 536.619 174.72C501.239 167.64 447.539 136.42 462.939 73.99C482.849 -6.70995 576.819 -7.69995 621.939 39.4401" fill="white"/>
<path fill-rule="evenodd" clip-rule="evenodd" d="M587.1 125.24C587.1 125.24 590.62 116.32 586.68 113.21C582.74 110.1 596.88 116.16 587.1 125.24ZM586.04 110.85C586.04 110.85 590.3 101.1 586.56 96.9399C582.83 92.7699 597.38 100.6 586.04 110.85ZM585.33 94.2399C585.33 94.2399 589.66 84.68 586.06 80.89C582.45 77.1 596.94 83.7199 585.33 94.2399ZM588.19 136.04C588.19 136.04 590.19 129.42 587.36 127.97C584.54 126.51 594.6 128.13 588.19 136.04Z" fill="#005F2A"/>
<path fill-rule="evenodd" clip-rule="evenodd" d="M460.51 101.68C463.1 101.55 526.35 98.2499 530.54 92.4299C531.86 90.5999 533.21 88.1399 534.71 85.4199C538.07 79.3099 542.18 71.8399 548.4 66.9599C552.77 63.5399 557.39 58.1799 561.03 52.9399C564.88 47.3899 567.61 41.9499 567.76 39.0399C567.85 37.2899 568.24 36.0099 568.86 35.1599C569.2 34.6999 569.6 34.3699 570.05 34.1599C570.51 33.9499 571.03 33.8599 571.6 33.8899C572.97 33.9599 574.73 34.7499 576.7 36.1999C579.53 38.2699 581.44 40.8299 582.36 43.5699C583.21 46.0899 583.39 48.9599 582.83 51.8999C581.88 56.8899 581.13 58.5199 580.33 60.2799C580.2 60.5699 580.07 60.8599 579.92 61.1899C579.59 61.9399 578.93 62.9699 578.18 64.1399C576.72 66.4199 574.94 69.2199 574.66 71.4099C574.51 72.5799 574.52 73.4199 574.63 74.0299C576.69 74.4999 582.09 75.8599 586.56 77.5199C590 78.7999 593.16 80.4399 594.83 82.4399C596.07 83.9299 596.69 85.9899 596.94 88.0499C597.31 91.0199 596.94 94.0599 596.52 95.2299C596.23 96.0299 596.67 96.6999 597.28 97.6099C598.14 98.8999 599.28 100.61 599.43 103.51C599.71 108.62 598.4 111.4 597.84 112.59C597.36 113.62 597.95 115.13 598.37 116.21L598.53 116.62C598.78 117.3 598.96 119.61 598.67 121.9C598.48 123.42 598.08 124.94 597.35 125.98C595.92 128.02 596.53 129.41 596.99 130.48C597.11 130.75 597.22 131 597.29 131.24C597.3 131.29 597.32 131.34 597.33 131.39C597.47 132.07 597.48 133.63 596.66 135.23C595.85 136.83 594.22 138.49 591.11 139.41C590.75 139.51 590.36 139.61 589.92 139.7C587.98 140.1 585.57 140.79 582.87 141.57C575.1 143.79 564.87 146.72 555.49 145.79C550.53 145.3 547.22 143.63 544.26 142.15C539.85 139.93 536.27 138.13 528.28 141.92C519.56 146.05 502.48 151.63 491.93 154.93C491.13 154.33 490.34 153.72 489.55 153.1C500.08 149.81 517.25 144.2 526.01 140.06C526.8 139.68 527.56 139.36 528.28 139.09C529.08 137.81 532.08 135.01 532.08 135.01C532.08 135.01 536.56 136.59 540.58 139.46C541.26 139.78 541.95 140.12 542.66 140.48C545.45 141.88 548.57 143.46 553.34 143.93C562.65 144.85 572.86 141.93 580.62 139.71C583.31 138.94 585.7 138.26 587.69 137.84C588.09 137.76 588.48 137.66 588.86 137.55C591.95 136.64 593.56 135 594.36 133.43C595.16 131.86 595.16 130.35 595.02 129.69C595.02 129.64 595 129.6 594.99 129.56C594.93 129.35 594.83 129.12 594.72 128.86C594.52 128.39 594.29 127.87 594.19 127.26C592.61 127.5 589.53 127.69 586.98 126.22C586.98 126.22 592.96 126.8 594.65 124.82C594.76 124.6 594.9 124.38 595.06 124.15C595.77 123.13 596.17 121.63 596.36 120.12C596.65 117.86 596.48 115.61 596.24 114.96C596.15 114.72 596.12 114.65 596.09 114.57C595.91 114.1 595.7 113.55 595.55 113C593.92 113.19 589.69 113.43 586.32 111.48C586.32 111.48 593.15 112.23 595.64 110.6C596.23 109.33 597.39 106.6 597.13 101.76C596.98 98.9599 595.92 97.3699 595.13 96.1899C594.94 95.9099 594.77 95.6399 594.62 95.3899C592.94 95.6799 588.83 96.1199 585.42 94.3999C585.42 94.3999 592.31 94.1899 594.2 93.2199C594.24 93.1999 594.28 93.1799 594.32 93.1699C594.69 91.8699 594.98 89.0599 594.65 86.3099C594.41 84.3599 593.88 82.4799 592.89 81.2899C592.62 80.9699 590.79 80.2099 588.49 79.3499C583.19 77.3799 576.6 75.8399 575.98 75.7499C575.74 75.7199 575.51 75.6699 575.28 75.6099C572.72 75.3599 569.69 75.1699 567.99 75.4699C564.65 76.0599 567.67 73.6199 567.67 73.6199C567.67 73.6199 569.76 73.4099 573.11 74.0599C572.91 73.7699 572.72 73.4399 572.55 73.0599C572.26 72.3899 572.15 71.3199 572.36 69.6399C572.44 69.0299 572.63 68.3699 572.9 67.6999C569.17 67.7599 570.6 67.0699 571.95 66.4599C572.95 66.0099 573.93 65.0999 574.79 64.0899C575.16 63.4799 575.54 62.8899 575.9 62.3299C576.64 61.1699 577.3 60.1299 577.63 59.3799C577.76 59.0799 577.9 58.7699 578.04 58.4699C578.84 56.7099 579.59 55.0799 580.54 50.1199C581.09 47.2099 580.92 44.3799 580.08 41.8999C579.33 39.6899 578.28 37.9899 576.97 37.0299C575.93 36.2599 574.84 35.8299 573.8 35.7799C573.28 35.7499 572.79 35.8399 572.35 36.0399C571.9 36.2399 571.52 36.5599 571.19 36.9999C570.59 37.8299 570.2 39.0899 570.12 40.8299C569.98 43.7499 567.23 49.2099 563.37 54.7799C559.73 60.0299 555.1 65.3899 550.72 68.8199C544.51 73.6999 540.41 81.1499 537.05 87.2599C535.55 89.9799 534.2 92.4399 532.88 94.2799C528.65 100.15 465.07 103.45 462.73 103.57C464.23 112.57 465.79 120.03 467.33 126.21C465.42 122.33 463.85 118.21 462.67 113.84C462.02 110.79 461.39 107.53 460.78 104.04C460.69 103.26 460.61 102.48 460.54 101.68" fill="#005F2A"/>
<path fill-rule="evenodd" clip-rule="evenodd" d="M566.829 65.6899C569.389 67.9699 573.229 65.8299 574.819 63.5999C575.599 62.3899 579.529 55.5699 579.229 52.9299C579.469 51.8599 574.309 65.3899 566.819 65.6999M586.099 94.1099C586.099 94.1099 592.049 93.8499 593.749 93.0399C594.279 92.7999 594.529 90.3399 594.469 89.2499C594.499 88.0699 593.809 93.2399 586.099 94.1099ZM586.719 111.1C586.719 111.1 592.009 111.6 594.849 110.51C595.379 110.27 596.509 107.21 596.459 106.12C596.499 104.94 594.439 110.24 586.719 111.1ZM587.099 125.81C587.099 125.81 591.669 126.52 593.949 124.91C594.729 124.39 595.849 121.61 595.799 120.52C595.839 119.34 594.809 124.95 587.099 125.82V125.81ZM587.849 136.87C587.849 136.87 591.139 136.54 592.829 134.93C593.929 133.89 594.529 132.44 594.799 130.67C594.859 128.74 594.499 134.87 587.859 136.87H587.849ZM532.809 128.89C532.809 128.89 527.209 112.1 530.259 104.15C533.309 96.1999 519.869 112.1 532.809 128.89ZM535.659 135.29C535.659 135.29 546.379 142.9 554.759 143.18C563.129 143.46 575.659 140.69 580.359 139.17C585.069 137.65 586.859 137.09 586.859 137.09C586.859 137.09 553.369 144.98 535.649 135.29H535.659ZM477.979 142.15C481.239 145.87 484.809 149.28 488.609 152.37C504.259 147.67 520.439 141.85 527.549 138.25C528.259 137.89 530.209 135.72 530.809 134.85C510.159 143.43 491.209 144.14 477.969 142.16L477.979 142.15ZM572.599 73.7699C572.599 73.7699 569.579 70.1099 570.279 68.3799C570.559 67.8599 571.229 67.8699 572.319 67.9699C571.939 69.0399 571.159 71.1399 572.599 73.7799V73.7699Z" fill="#679F7D"/>
<path fill-rule="evenodd" clip-rule="evenodd" d="M475.369 133.28C500.079 171.12 554.839 184.09 597.649 162.24C640.459 140.39 655.129 91.98 630.419 54.14C605.699 16.3 550.949 3.32997 508.139 25.18C465.329 47.03 450.659 95.44 475.369 133.28ZM470.389 135.82C499.939 181.08 560.859 198.92 606.409 175.67C651.959 152.42 664.939 96.86 635.389 51.61C605.829 6.34998 544.919 -11.49 499.369 11.76C453.809 35.01 440.839 90.57 470.389 135.82Z" fill="#F36F21"/>
</svg>
